# xmcd CD database file generated by RipIT.
#
# Track frame offsets:
#	150
#	21287
#	39258
#	56600
#	72483
#	85209
#	102244
#	122631
#	137695
#	153102
#	170303
#	187553
#
# Disc length: 2738 seconds
#
# Revision: 4
# Processed by: cddbd v1.5.1PL2 Copyright (c) Steve Scherf et al.
# Submitted via: RipIT 3.4 www.suwald.com/ripit/ripit.html at Mon Dec 26 14:09:12 CET 2005.
#
DISCID=8f0ab00c
DTITLE=Kylie Minogue - Fever
DYEAR=2001
DGENRE=Pop
TTITLE0=More, More, More
TTITLE1=Love At First Sight
TTITLE2=Can't Get You Out Of My Head
TTITLE3=Fever
TTITLE4=Give It To Me
TTITLE5=Fragile
TTITLE6=Come Into My World
TTITLE7=In Your Eyes
TTITLE8=Dancefloor
TTITLE9=Love Affair
TTITLE10=Your Love
TTITLE11=Burning Up
EXTD=
EXTT0=
EXTT1=
EXTT2=
EXTT3=
EXTT4=
EXTT5=
EXTT6=
EXTT7=
EXTT8=
EXTT9=
EXTT10=
EXTT11=
PLAYORDER=
